<mxfile host="Electron" agent="Mozilla/5.0 (Windows NT 10.0; Win64; x64) AppleWebKit/537.36 (KHTML, like Gecko) draw.io/24.7.8 Chrome/128.0.6613.36 Electron/32.0.1 Safari/537.36" version="24.7.8">
  <diagram name="Page-1" id="U5jIEejSyX-uajcfV4bv">
    <mxGraphModel dx="1518" dy="813" grid="0" gridSize="10" guides="1" tooltips="1" connect="1" arrows="1" fold="1" page="1" pageScale="1" pageWidth="850" pageHeight="1100" math="0" shadow="0">
      <root>
        <mxCell id="0" />
        <mxCell id="1" parent="0" />
        <mxCell id="8NPFuA1XheMR9wquFf6c-1" value="Company" style="whiteSpace=wrap;html=1;align=center;" parent="1" vertex="1">
          <mxGeometry x="85" y="310" width="100" height="40" as="geometry" />
        </mxCell>
        <mxCell id="8NPFuA1XheMR9wquFf6c-34" style="edgeStyle=orthogonalEdgeStyle;rounded=0;orthogonalLoop=1;jettySize=auto;html=1;exitX=0.5;exitY=1;exitDx=0;exitDy=0;entryX=0.5;entryY=0;entryDx=0;entryDy=0;" parent="1" source="8NPFuA1XheMR9wquFf6c-2" target="8NPFuA1XheMR9wquFf6c-33" edge="1">
          <mxGeometry relative="1" as="geometry" />
        </mxCell>
        <mxCell id="j-geYHsWMma8GPtb1eu4-12" style="edgeStyle=orthogonalEdgeStyle;rounded=0;orthogonalLoop=1;jettySize=auto;html=1;exitX=1;exitY=0.5;exitDx=0;exitDy=0;entryX=0;entryY=0.5;entryDx=0;entryDy=0;" edge="1" parent="1" source="8NPFuA1XheMR9wquFf6c-2" target="8NPFuA1XheMR9wquFf6c-6">
          <mxGeometry relative="1" as="geometry" />
        </mxCell>
        <mxCell id="j-geYHsWMma8GPtb1eu4-13" style="edgeStyle=orthogonalEdgeStyle;rounded=0;orthogonalLoop=1;jettySize=auto;html=1;exitX=1;exitY=0.5;exitDx=0;exitDy=0;entryX=0;entryY=0.5;entryDx=0;entryDy=0;" edge="1" parent="1" source="8NPFuA1XheMR9wquFf6c-2" target="8NPFuA1XheMR9wquFf6c-21">
          <mxGeometry relative="1" as="geometry" />
        </mxCell>
        <mxCell id="j-geYHsWMma8GPtb1eu4-14" style="edgeStyle=orthogonalEdgeStyle;rounded=0;orthogonalLoop=1;jettySize=auto;html=1;exitX=1;exitY=0.5;exitDx=0;exitDy=0;entryX=0;entryY=0.5;entryDx=0;entryDy=0;" edge="1" parent="1" source="8NPFuA1XheMR9wquFf6c-2" target="8NPFuA1XheMR9wquFf6c-5">
          <mxGeometry relative="1" as="geometry" />
        </mxCell>
        <mxCell id="j-geYHsWMma8GPtb1eu4-15" style="edgeStyle=orthogonalEdgeStyle;rounded=0;orthogonalLoop=1;jettySize=auto;html=1;exitX=1;exitY=0.5;exitDx=0;exitDy=0;entryX=0;entryY=0.5;entryDx=0;entryDy=0;" edge="1" parent="1" source="8NPFuA1XheMR9wquFf6c-2" target="8NPFuA1XheMR9wquFf6c-4">
          <mxGeometry relative="1" as="geometry" />
        </mxCell>
        <mxCell id="8NPFuA1XheMR9wquFf6c-2" value="Employee" style="whiteSpace=wrap;html=1;align=center;" parent="1" vertex="1">
          <mxGeometry x="465" y="310" width="100" height="40" as="geometry" />
        </mxCell>
        <mxCell id="j-geYHsWMma8GPtb1eu4-16" style="edgeStyle=orthogonalEdgeStyle;rounded=0;orthogonalLoop=1;jettySize=auto;html=1;exitX=1;exitY=0.5;exitDx=0;exitDy=0;entryX=0;entryY=0.5;entryDx=0;entryDy=0;" edge="1" parent="1" source="8NPFuA1XheMR9wquFf6c-4" target="8NPFuA1XheMR9wquFf6c-10">
          <mxGeometry relative="1" as="geometry" />
        </mxCell>
        <mxCell id="j-geYHsWMma8GPtb1eu4-17" style="edgeStyle=orthogonalEdgeStyle;rounded=0;orthogonalLoop=1;jettySize=auto;html=1;exitX=1;exitY=0.5;exitDx=0;exitDy=0;entryX=0;entryY=0.5;entryDx=0;entryDy=0;" edge="1" parent="1" source="8NPFuA1XheMR9wquFf6c-4" target="8NPFuA1XheMR9wquFf6c-9">
          <mxGeometry relative="1" as="geometry" />
        </mxCell>
        <mxCell id="8NPFuA1XheMR9wquFf6c-4" value="Name" style="ellipse;whiteSpace=wrap;html=1;align=center;" parent="1" vertex="1">
          <mxGeometry x="610" y="400" width="100" height="40" as="geometry" />
        </mxCell>
        <mxCell id="8NPFuA1XheMR9wquFf6c-5" value="Gender" style="ellipse;whiteSpace=wrap;html=1;align=center;" parent="1" vertex="1">
          <mxGeometry x="610" y="340" width="100" height="40" as="geometry" />
        </mxCell>
        <mxCell id="8NPFuA1XheMR9wquFf6c-6" value="Birth Date" style="ellipse;whiteSpace=wrap;html=1;align=center;" parent="1" vertex="1">
          <mxGeometry x="610" y="240" width="100" height="40" as="geometry" />
        </mxCell>
        <mxCell id="8NPFuA1XheMR9wquFf6c-9" value="FName" style="ellipse;whiteSpace=wrap;html=1;align=center;" parent="1" vertex="1">
          <mxGeometry x="740" y="430" width="100" height="40" as="geometry" />
        </mxCell>
        <mxCell id="8NPFuA1XheMR9wquFf6c-10" value="LName" style="ellipse;whiteSpace=wrap;html=1;align=center;" parent="1" vertex="1">
          <mxGeometry x="740" y="370" width="100" height="40" as="geometry" />
        </mxCell>
        <mxCell id="8NPFuA1XheMR9wquFf6c-17" value="has" style="shape=rhombus;perimeter=rhombusPerimeter;whiteSpace=wrap;html=1;align=center;" parent="1" vertex="1">
          <mxGeometry x="265" y="300" width="120" height="60" as="geometry" />
        </mxCell>
        <mxCell id="8NPFuA1XheMR9wquFf6c-21" value="&lt;span style=&quot;border-bottom: 1px dotted&quot;&gt;SSN&lt;/span&gt;" style="ellipse;whiteSpace=wrap;html=1;align=center;" parent="1" vertex="1">
          <mxGeometry x="610" y="290" width="100" height="40" as="geometry" />
        </mxCell>
        <mxCell id="8NPFuA1XheMR9wquFf6c-32" style="edgeStyle=orthogonalEdgeStyle;rounded=0;orthogonalLoop=1;jettySize=auto;html=1;exitX=0.5;exitY=1;exitDx=0;exitDy=0;" parent="1" source="8NPFuA1XheMR9wquFf6c-22" target="8NPFuA1XheMR9wquFf6c-23" edge="1">
          <mxGeometry relative="1" as="geometry" />
        </mxCell>
        <mxCell id="8NPFuA1XheMR9wquFf6c-22" value="has" style="shape=rhombus;perimeter=rhombusPerimeter;whiteSpace=wrap;html=1;align=center;" parent="1" vertex="1">
          <mxGeometry x="65" y="470" width="120" height="60" as="geometry" />
        </mxCell>
        <mxCell id="j-geYHsWMma8GPtb1eu4-26" style="edgeStyle=orthogonalEdgeStyle;rounded=0;orthogonalLoop=1;jettySize=auto;html=1;exitX=0.5;exitY=1;exitDx=0;exitDy=0;entryX=0.5;entryY=0;entryDx=0;entryDy=0;" edge="1" parent="1" source="8NPFuA1XheMR9wquFf6c-23" target="8NPFuA1XheMR9wquFf6c-26">
          <mxGeometry relative="1" as="geometry" />
        </mxCell>
        <mxCell id="j-geYHsWMma8GPtb1eu4-27" style="edgeStyle=orthogonalEdgeStyle;rounded=0;orthogonalLoop=1;jettySize=auto;html=1;exitX=0.5;exitY=1;exitDx=0;exitDy=0;entryX=0.5;entryY=0;entryDx=0;entryDy=0;" edge="1" parent="1" source="8NPFuA1XheMR9wquFf6c-23" target="8NPFuA1XheMR9wquFf6c-27">
          <mxGeometry relative="1" as="geometry" />
        </mxCell>
        <mxCell id="j-geYHsWMma8GPtb1eu4-28" style="edgeStyle=orthogonalEdgeStyle;rounded=0;orthogonalLoop=1;jettySize=auto;html=1;exitX=0.5;exitY=1;exitDx=0;exitDy=0;entryX=0.5;entryY=0;entryDx=0;entryDy=0;" edge="1" parent="1" source="8NPFuA1XheMR9wquFf6c-23" target="8NPFuA1XheMR9wquFf6c-43">
          <mxGeometry relative="1" as="geometry" />
        </mxCell>
        <mxCell id="8NPFuA1XheMR9wquFf6c-23" value="Department" style="whiteSpace=wrap;html=1;align=center;" parent="1" vertex="1">
          <mxGeometry x="75" y="620" width="100" height="40" as="geometry" />
        </mxCell>
        <mxCell id="8NPFuA1XheMR9wquFf6c-26" value="location" style="ellipse;whiteSpace=wrap;html=1;align=center;" parent="1" vertex="1">
          <mxGeometry y="700" width="100" height="40" as="geometry" />
        </mxCell>
        <mxCell id="8NPFuA1XheMR9wquFf6c-27" value="DName" style="ellipse;whiteSpace=wrap;html=1;align=center;" parent="1" vertex="1">
          <mxGeometry x="75" y="730" width="100" height="40" as="geometry" />
        </mxCell>
        <mxCell id="8NPFuA1XheMR9wquFf6c-36" style="edgeStyle=orthogonalEdgeStyle;rounded=0;orthogonalLoop=1;jettySize=auto;html=1;exitX=0.5;exitY=1;exitDx=0;exitDy=0;entryX=0.5;entryY=0;entryDx=0;entryDy=0;" parent="1" source="8NPFuA1XheMR9wquFf6c-33" target="8NPFuA1XheMR9wquFf6c-35" edge="1">
          <mxGeometry relative="1" as="geometry" />
        </mxCell>
        <mxCell id="8NPFuA1XheMR9wquFf6c-33" value="Work" style="shape=rhombus;perimeter=rhombusPerimeter;whiteSpace=wrap;html=1;align=center;" parent="1" vertex="1">
          <mxGeometry x="455" y="460" width="120" height="60" as="geometry" />
        </mxCell>
        <mxCell id="j-geYHsWMma8GPtb1eu4-29" style="edgeStyle=orthogonalEdgeStyle;rounded=0;orthogonalLoop=1;jettySize=auto;html=1;exitX=0.5;exitY=1;exitDx=0;exitDy=0;entryX=0.5;entryY=0;entryDx=0;entryDy=0;" edge="1" parent="1" source="8NPFuA1XheMR9wquFf6c-35" target="8NPFuA1XheMR9wquFf6c-40">
          <mxGeometry relative="1" as="geometry" />
        </mxCell>
        <mxCell id="j-geYHsWMma8GPtb1eu4-30" style="edgeStyle=orthogonalEdgeStyle;rounded=0;orthogonalLoop=1;jettySize=auto;html=1;exitX=0.5;exitY=1;exitDx=0;exitDy=0;entryX=0.5;entryY=0;entryDx=0;entryDy=0;" edge="1" parent="1" source="8NPFuA1XheMR9wquFf6c-35" target="8NPFuA1XheMR9wquFf6c-39">
          <mxGeometry relative="1" as="geometry" />
        </mxCell>
        <mxCell id="j-geYHsWMma8GPtb1eu4-31" style="edgeStyle=orthogonalEdgeStyle;rounded=0;orthogonalLoop=1;jettySize=auto;html=1;exitX=0.5;exitY=1;exitDx=0;exitDy=0;entryX=0.5;entryY=0;entryDx=0;entryDy=0;" edge="1" parent="1" source="8NPFuA1XheMR9wquFf6c-35" target="8NPFuA1XheMR9wquFf6c-38">
          <mxGeometry relative="1" as="geometry" />
        </mxCell>
        <mxCell id="j-geYHsWMma8GPtb1eu4-32" style="edgeStyle=orthogonalEdgeStyle;rounded=0;orthogonalLoop=1;jettySize=auto;html=1;exitX=0.5;exitY=1;exitDx=0;exitDy=0;" edge="1" parent="1" source="8NPFuA1XheMR9wquFf6c-35" target="8NPFuA1XheMR9wquFf6c-42">
          <mxGeometry relative="1" as="geometry" />
        </mxCell>
        <mxCell id="8NPFuA1XheMR9wquFf6c-35" value="Project" style="whiteSpace=wrap;html=1;align=center;" parent="1" vertex="1">
          <mxGeometry x="465" y="620" width="100" height="40" as="geometry" />
        </mxCell>
        <mxCell id="8NPFuA1XheMR9wquFf6c-38" value="City" style="ellipse;whiteSpace=wrap;html=1;align=center;" parent="1" vertex="1">
          <mxGeometry x="540" y="700" width="100" height="40" as="geometry" />
        </mxCell>
        <mxCell id="8NPFuA1XheMR9wquFf6c-39" value="Location" style="ellipse;whiteSpace=wrap;html=1;align=center;" parent="1" vertex="1">
          <mxGeometry x="440" y="700" width="100" height="40" as="geometry" />
        </mxCell>
        <mxCell id="8NPFuA1XheMR9wquFf6c-40" value="Pname" style="ellipse;whiteSpace=wrap;html=1;align=center;" parent="1" vertex="1">
          <mxGeometry x="340" y="700" width="100" height="40" as="geometry" />
        </mxCell>
        <mxCell id="8NPFuA1XheMR9wquFf6c-42" value="PNumber" style="ellipse;whiteSpace=wrap;html=1;align=center;fontStyle=4;" parent="1" vertex="1">
          <mxGeometry x="640" y="700" width="100" height="40" as="geometry" />
        </mxCell>
        <mxCell id="8NPFuA1XheMR9wquFf6c-43" value="DNUM" style="ellipse;whiteSpace=wrap;html=1;align=center;fontStyle=4;" parent="1" vertex="1">
          <mxGeometry x="150" y="700" width="100" height="40" as="geometry" />
        </mxCell>
        <mxCell id="8NPFuA1XheMR9wquFf6c-51" value="has" style="shape=rhombus;perimeter=rhombusPerimeter;whiteSpace=wrap;html=1;align=center;" parent="1" vertex="1">
          <mxGeometry x="455" y="180" width="120" height="60" as="geometry" />
        </mxCell>
        <mxCell id="8NPFuA1XheMR9wquFf6c-60" value="Gender" style="ellipse;whiteSpace=wrap;html=1;align=center;" parent="1" vertex="1">
          <mxGeometry x="75" y="60" width="100" height="40" as="geometry" />
        </mxCell>
        <mxCell id="8NPFuA1XheMR9wquFf6c-61" value="Birthdate" style="ellipse;whiteSpace=wrap;html=1;align=center;" parent="1" vertex="1">
          <mxGeometry x="195" y="60" width="100" height="40" as="geometry" />
        </mxCell>
        <mxCell id="8NPFuA1XheMR9wquFf6c-62" style="edgeStyle=orthogonalEdgeStyle;rounded=0;orthogonalLoop=1;jettySize=auto;html=1;exitX=0.5;exitY=1;exitDx=0;exitDy=0;" parent="1" edge="1">
          <mxGeometry relative="1" as="geometry">
            <mxPoint x="125" y="100" as="sourcePoint" />
            <mxPoint x="125" y="100" as="targetPoint" />
          </mxGeometry>
        </mxCell>
        <mxCell id="8NPFuA1XheMR9wquFf6c-63" value="Name" style="ellipse;whiteSpace=wrap;html=1;align=center;fontStyle=4;" parent="1" vertex="1">
          <mxGeometry x="320" y="60" width="100" height="40" as="geometry" />
        </mxCell>
        <mxCell id="j-geYHsWMma8GPtb1eu4-4" style="edgeStyle=orthogonalEdgeStyle;rounded=0;orthogonalLoop=1;jettySize=auto;html=1;exitX=0.5;exitY=0;exitDx=0;exitDy=0;" edge="1" parent="1" source="8NPFuA1XheMR9wquFf6c-67">
          <mxGeometry relative="1" as="geometry">
            <mxPoint x="125" y="100" as="targetPoint" />
          </mxGeometry>
        </mxCell>
        <mxCell id="j-geYHsWMma8GPtb1eu4-5" style="edgeStyle=orthogonalEdgeStyle;rounded=0;orthogonalLoop=1;jettySize=auto;html=1;exitX=0.5;exitY=0;exitDx=0;exitDy=0;entryX=0.5;entryY=1;entryDx=0;entryDy=0;" edge="1" parent="1" source="8NPFuA1XheMR9wquFf6c-67">
          <mxGeometry relative="1" as="geometry">
            <mxPoint x="255" y="100" as="targetPoint" />
          </mxGeometry>
        </mxCell>
        <mxCell id="j-geYHsWMma8GPtb1eu4-7" style="edgeStyle=orthogonalEdgeStyle;rounded=0;orthogonalLoop=1;jettySize=auto;html=1;exitX=0.5;exitY=0;exitDx=0;exitDy=0;entryX=0.5;entryY=1;entryDx=0;entryDy=0;" edge="1" parent="1" source="8NPFuA1XheMR9wquFf6c-67" target="8NPFuA1XheMR9wquFf6c-63">
          <mxGeometry relative="1" as="geometry" />
        </mxCell>
        <mxCell id="8NPFuA1XheMR9wquFf6c-67" value="dependent" style="shape=ext;margin=3;double=1;whiteSpace=wrap;html=1;align=center;" parent="1" vertex="1">
          <mxGeometry x="205" y="190" width="100" height="40" as="geometry" />
        </mxCell>
        <mxCell id="j-geYHsWMma8GPtb1eu4-2" value="" style="endArrow=none;html=1;rounded=0;entryX=0;entryY=0.5;entryDx=0;entryDy=0;" edge="1" parent="1" target="8NPFuA1XheMR9wquFf6c-51">
          <mxGeometry width="50" height="50" relative="1" as="geometry">
            <mxPoint x="305" y="210" as="sourcePoint" />
            <mxPoint x="420" y="210" as="targetPoint" />
          </mxGeometry>
        </mxCell>
        <mxCell id="j-geYHsWMma8GPtb1eu4-8" value="" style="endArrow=none;html=1;rounded=0;exitX=1;exitY=0.5;exitDx=0;exitDy=0;" edge="1" parent="1" source="8NPFuA1XheMR9wquFf6c-1">
          <mxGeometry width="50" height="50" relative="1" as="geometry">
            <mxPoint x="190" y="329.41" as="sourcePoint" />
            <mxPoint x="265" y="329.41" as="targetPoint" />
          </mxGeometry>
        </mxCell>
        <mxCell id="j-geYHsWMma8GPtb1eu4-9" value="" style="endArrow=none;html=1;rounded=0;exitX=1;exitY=0.5;exitDx=0;exitDy=0;" edge="1" parent="1" target="8NPFuA1XheMR9wquFf6c-22">
          <mxGeometry width="50" height="50" relative="1" as="geometry">
            <mxPoint x="125" y="350.59000000000003" as="sourcePoint" />
            <mxPoint x="205" y="350" as="targetPoint" />
          </mxGeometry>
        </mxCell>
        <mxCell id="j-geYHsWMma8GPtb1eu4-19" value="" style="endArrow=none;html=1;rounded=0;exitX=0.5;exitY=0;exitDx=0;exitDy=0;entryX=0.5;entryY=1;entryDx=0;entryDy=0;" edge="1" parent="1" source="8NPFuA1XheMR9wquFf6c-2" target="8NPFuA1XheMR9wquFf6c-51">
          <mxGeometry width="50" height="50" relative="1" as="geometry">
            <mxPoint x="470" y="290" as="sourcePoint" />
            <mxPoint x="520" y="240" as="targetPoint" />
          </mxGeometry>
        </mxCell>
        <mxCell id="j-geYHsWMma8GPtb1eu4-24" value="" style="shape=link;html=1;rounded=0;" edge="1" parent="1">
          <mxGeometry relative="1" as="geometry">
            <mxPoint x="380" y="330" as="sourcePoint" />
            <mxPoint x="465" y="330" as="targetPoint" />
          </mxGeometry>
        </mxCell>
        <mxCell id="j-geYHsWMma8GPtb1eu4-33" value="M" style="text;html=1;align=center;verticalAlign=middle;resizable=0;points=[];autosize=1;strokeColor=none;fillColor=none;" vertex="1" parent="1">
          <mxGeometry x="510" y="590" width="30" height="30" as="geometry" />
        </mxCell>
        <mxCell id="j-geYHsWMma8GPtb1eu4-34" value="N" style="text;html=1;align=center;verticalAlign=middle;resizable=0;points=[];autosize=1;strokeColor=none;fillColor=none;" vertex="1" parent="1">
          <mxGeometry x="510" y="345" width="30" height="30" as="geometry" />
        </mxCell>
        <mxCell id="j-geYHsWMma8GPtb1eu4-37" value="N" style="text;html=1;align=center;verticalAlign=middle;resizable=0;points=[];autosize=1;strokeColor=none;fillColor=none;" vertex="1" parent="1">
          <mxGeometry x="435" y="330" width="30" height="30" as="geometry" />
        </mxCell>
        <mxCell id="j-geYHsWMma8GPtb1eu4-38" value="1" style="text;html=1;align=center;verticalAlign=middle;resizable=0;points=[];autosize=1;strokeColor=none;fillColor=none;" vertex="1" parent="1">
          <mxGeometry x="185" y="300" width="30" height="30" as="geometry" />
        </mxCell>
        <mxCell id="j-geYHsWMma8GPtb1eu4-39" value="N" style="text;html=1;align=center;verticalAlign=middle;resizable=0;points=[];autosize=1;strokeColor=none;fillColor=none;" vertex="1" parent="1">
          <mxGeometry x="120" y="590" width="30" height="30" as="geometry" />
        </mxCell>
        <mxCell id="j-geYHsWMma8GPtb1eu4-40" value="1" style="text;html=1;align=center;verticalAlign=middle;resizable=0;points=[];autosize=1;strokeColor=none;fillColor=none;" vertex="1" parent="1">
          <mxGeometry x="480" y="280" width="30" height="30" as="geometry" />
        </mxCell>
        <mxCell id="j-geYHsWMma8GPtb1eu4-43" value="M" style="text;html=1;align=center;verticalAlign=middle;resizable=0;points=[];autosize=1;strokeColor=none;fillColor=none;" vertex="1" parent="1">
          <mxGeometry x="305" y="210" width="30" height="30" as="geometry" />
        </mxCell>
      </root>
    </mxGraphModel>
  </diagram>
</mxfile>
